<svg width="387" height="150" viewBox="0 0 387 150" fill="none" xmlns="http://www.w3.org/2000/svg">
<path d="M51.6229 32.6327C55.3515 32.6327 58.3632 33.4454 60.6577 35.0707L58.3632 48.408C58.2676 49.2684 57.9807 49.8421 57.5027 50.1289C56.9291 50.5113 56.2598 50.7025 55.495 50.7025C54.8257 50.7025 53.8696 50.5591 52.6267 50.2723C50.9058 49.8899 49.2327 49.6987 47.6073 49.6987C43.8787 49.6987 40.7236 50.7025 38.1422 52.7103C35.752 54.5268 33.5531 57.5385 31.5453 61.7452V93.2956L38.7159 94.5863C41.106 95.1599 42.3011 96.6419 42.3011 99.032V107.493H3.00653V99.032C3.00653 96.6419 4.20162 95.1599 6.5918 94.5863L13.7624 93.2956V48.1211L6.5918 46.8304C4.20162 46.2568 3.00653 44.7749 3.00653 42.3847V33.9234H24.2314C26.0479 33.9234 27.2908 34.2581 27.96 34.9273C28.6293 35.5966 29.1073 36.7439 29.3942 38.3692L30.5414 47.2607C33.1228 42.5759 36.1823 38.9906 39.7197 36.5048C43.3528 33.9234 47.3205 32.6327 51.6229 32.6327ZM101.321 32.7762C106.58 32.7762 111.551 33.6844 116.236 35.501C120.825 37.3175 124.65 39.8033 127.709 42.9583C130.769 46.1134 133.159 50.0811 134.88 54.8614C136.601 59.5462 137.461 64.7568 137.461 70.4932C137.461 76.2297 136.601 81.4881 134.88 86.2685C133.063 91.1444 130.673 95.1599 127.709 98.315C124.554 101.661 120.73 104.195 116.236 105.916C111.838 107.637 106.867 108.497 101.321 108.497C95.7763 108.497 90.7569 107.637 86.2633 105.916C81.7698 104.195 77.9455 101.661 74.7905 98.315C71.4442 94.8731 68.9584 90.8576 67.3331 86.2685C65.6121 81.4881 64.7517 76.2297 64.7517 70.4932C64.7517 64.7568 65.6121 59.5462 67.3331 54.8614C68.9584 50.4635 71.4442 46.4958 74.7905 42.9583C77.8499 39.8033 81.6742 37.3175 86.2633 35.501C90.9481 33.6844 95.9675 32.7762 101.321 32.7762ZM101.321 94.8731C107.44 94.8731 111.934 92.8176 114.802 88.7064C117.766 84.4041 119.248 78.3809 119.248 70.6367C119.248 62.8925 117.766 56.8692 114.802 52.5669C111.934 48.3602 107.44 46.2568 101.321 46.2568C95.2026 46.2568 90.6135 48.3602 87.554 52.5669C84.4946 56.7736 82.9649 62.8447 82.9649 70.7801C82.9649 78.5243 84.4946 84.4997 87.554 88.7064C90.5179 92.8176 95.107 94.8731 101.321 94.8731ZM198.71 107.206C197.658 107.206 196.702 106.92 195.842 106.346C195.077 105.868 194.551 105.055 194.264 103.908L192.83 97.1677C189.962 100.418 186.568 103.143 182.648 105.342C178.824 107.445 174.282 108.497 169.024 108.497C164.913 108.497 161.28 107.685 158.125 106.059C154.778 104.338 151.91 101.9 149.52 98.7452C147.13 95.6858 145.265 91.7659 143.927 86.9855C142.588 82.1095 141.919 76.7555 141.919 70.9235C141.919 65.4739 142.636 60.4067 144.07 55.7219C145.409 51.324 147.56 47.2607 150.524 43.532C153.105 40.2813 156.404 37.6043 160.419 35.501C164.243 33.4932 168.594 32.4893 173.47 32.4893C177.581 32.4893 181.118 33.1586 184.082 34.4971C187.237 35.9312 189.818 37.6521 191.826 39.6599V15.1366L187.667 14.4195C187.189 14.3239 186.759 14.2283 186.377 14.1327C186.09 14.0371 185.803 13.9893 185.516 13.9893L184.656 13.8459C182.265 13.2723 181.07 11.7903 181.07 9.40016V0.938912H209.609V93.1522L213.338 93.7258L215.202 94.1561L216.063 94.2995C218.453 94.8731 219.648 96.355 219.648 98.7452V107.206H198.71ZM191.97 52.7103C190.057 50.3201 187.858 48.5992 185.373 47.5475C182.791 46.4958 180.21 45.97 177.628 45.97C175.143 45.97 172.752 46.4958 170.458 47.5475C168.355 48.5036 166.49 50.0333 164.865 52.1366C163.431 54.1444 162.283 56.7258 161.423 59.8808C160.658 62.6534 160.276 66.3343 160.276 70.9235C160.276 75.5126 160.61 79.1935 161.28 81.9661C161.949 84.8343 162.953 87.2245 164.291 89.1367C165.63 91.1444 167.159 92.5307 168.88 93.2956C170.697 94.1561 172.8 94.5863 175.19 94.5863C179.015 94.5863 182.17 93.8214 184.656 92.2917C187.333 90.6664 189.771 88.4674 191.97 85.6948V52.7103ZM273.462 32.6327C277.19 32.6327 280.202 33.4454 282.497 35.0707L280.202 48.408C280.106 49.2684 279.82 49.8421 279.342 50.1289C278.768 50.5113 278.099 50.7025 277.334 50.7025C276.665 50.7025 275.709 50.5591 274.466 50.2723C272.745 49.8899 271.072 49.6987 269.446 49.6987C265.718 49.6987 262.563 50.7025 259.981 52.7103C257.591 54.5268 255.392 57.5385 253.384 61.7452V93.2956L260.555 94.5863C262.945 95.1599 264.14 96.6419 264.14 99.032V107.493H224.845V99.032C224.845 96.6419 226.041 95.1599 228.431 94.5863L235.601 93.2956V48.1211L228.431 46.8304C226.041 46.2568 224.845 44.7749 224.845 42.3847V33.9234H246.07C247.887 33.9234 249.13 34.2581 249.799 34.9273C250.468 35.5966 250.946 36.7439 251.233 38.3692L252.38 47.2607C254.962 42.5759 258.021 38.9906 261.559 36.5048C265.192 33.9234 269.159 32.6327 273.462 32.6327ZM318.284 12.4118C318.284 13.7503 317.95 15.1844 317.281 16.7141C316.707 18.0526 315.894 19.2477 314.843 20.2994C313.695 21.4467 312.5 22.2593 311.257 22.7374C309.823 23.311 308.341 23.5978 306.812 23.5978C305.282 23.5978 303.8 23.311 302.366 22.7374C301.218 22.2593 300.071 21.4467 298.924 20.2994C297.872 19.2477 297.06 18.0526 296.486 16.7141C295.912 15.3756 295.625 13.9415 295.625 12.4118C295.625 10.8821 295.912 9.40016 296.486 7.96605C296.964 6.72316 297.777 5.52806 298.924 4.38077C299.976 3.3291 301.123 2.56424 302.366 2.0862C304.087 1.41695 305.569 1.08232 306.812 1.08232C308.054 1.08232 309.536 1.41695 311.257 2.0862C312.691 2.65984 313.886 3.4247 314.843 4.38077C315.99 5.52806 316.802 6.72316 317.281 7.96605C317.95 9.59138 318.284 11.0733 318.284 12.4118ZM322.874 94.5863C325.264 95.1599 326.459 96.6419 326.459 99.032V107.493H287.021V99.032C287.021 96.6419 288.216 95.1599 290.606 94.5863L291.467 94.4429L293.618 94.0127L297.92 93.2956V48.1211L293.618 47.4041C293.14 47.3085 292.709 47.2129 292.327 47.1173C292.04 47.0216 291.753 46.9738 291.467 46.9738L290.606 46.8304C288.216 46.2568 287.021 44.7749 287.021 42.3847V33.9234H315.56V93.2956L319.862 94.0127C320.34 94.1083 320.722 94.2039 321.009 94.2995C321.392 94.3951 321.726 94.4429 322.013 94.4429L322.874 94.5863Z" fill="#231F1F" fill-opacity="0.87"/>
<path d="M60.6577 35.0707L60.7809 35.0919L60.7943 35.0143L60.73 34.9687L60.6577 35.0707ZM58.3632 48.408L58.2398 48.3867L58.2389 48.3941L58.3632 48.408ZM57.5027 50.1289L57.4383 50.0216L57.4334 50.0249L57.5027 50.1289ZM52.6267 50.2723L52.6548 50.1505L52.6539 50.1503L52.6267 50.2723ZM38.1422 52.7103L38.2179 52.8098L38.219 52.809L38.1422 52.7103ZM31.5453 61.7452L31.4325 61.6913L31.4203 61.7169V61.7452H31.5453ZM31.5453 93.2956H31.4203V93.4001L31.5232 93.4186L31.5453 93.2956ZM38.7159 94.5863L38.7451 94.4645L38.738 94.4633L38.7159 94.5863ZM42.3011 107.493V107.618H42.4261V107.493H42.3011ZM3.00653 107.493H2.88153V107.618H3.00653V107.493ZM6.5918 94.5863L6.56962 94.4631L6.56263 94.4647L6.5918 94.5863ZM13.7624 93.2956L13.7845 93.4186L13.8874 93.4001V93.2956H13.7624ZM13.7624 48.1211H13.8874V48.0166L13.7845 47.9981L13.7624 48.1211ZM6.5918 46.8304L6.56258 46.9522L6.56966 46.9535L6.5918 46.8304ZM3.00653 33.9234V33.7984H2.88153V33.9234H3.00653ZM27.96 34.9273L28.0484 34.8389L27.96 34.9273ZM29.3941 38.3692L29.5183 38.3532L29.5172 38.3475L29.3941 38.3692ZM30.5414 47.2607L30.4175 47.2767L30.4664 47.6559L30.6509 47.321L30.5414 47.2607ZM39.7197 36.5048L39.7916 36.6071L39.7921 36.6067L39.7197 36.5048ZM51.6229 32.7577C55.334 32.7577 58.318 33.5666 60.5855 35.1727L60.73 34.9687C58.4084 33.3243 55.3691 32.5077 51.6229 32.5077V32.7577ZM60.5346 35.0495L58.24 48.3868L58.4864 48.4291L60.7809 35.0919L60.5346 35.0495ZM58.2389 48.3941C58.1452 49.2377 57.8678 49.7641 57.4384 50.0217L57.567 50.2361C58.0937 49.9201 58.3899 49.2991 58.4874 48.4218L58.2389 48.3941ZM57.4334 50.0249C56.8825 50.3921 56.2379 50.5775 55.4949 50.5775V50.8275C56.2817 50.8275 56.9757 50.6305 57.572 50.2329L57.4334 50.0249ZM55.4949 50.5775C54.8402 50.5775 53.8952 50.4367 52.6548 50.1505L52.5986 50.3941C53.844 50.6815 54.8112 50.8275 55.4949 50.8275V50.5775ZM52.6539 50.1503C50.9248 49.766 49.2425 49.5737 47.6073 49.5737V49.8237C49.2228 49.8237 50.8868 50.0137 52.5996 50.3943L52.6539 50.1503ZM47.6073 49.5737C43.855 49.5737 40.6718 50.5844 38.0655 52.6116L38.219 52.809C40.7754 50.8206 43.9024 49.8237 47.6073 49.8237V49.5737ZM38.0666 52.6108C35.6542 54.4442 33.4445 57.4756 31.4325 61.6913L31.6581 61.799C33.6616 57.6013 35.8499 54.6094 38.2179 52.8098L38.0666 52.6108ZM31.4203 61.7452V93.2956H31.6703V61.7452H31.4203ZM31.5232 93.4186L38.6937 94.7093L38.738 94.4633L31.5675 93.1726L31.5232 93.4186ZM38.6867 94.7078C39.8628 94.9901 40.7318 95.4925 41.3075 96.2064C41.883 96.92 42.1761 97.858 42.1761 99.032H42.4261C42.4261 97.8159 42.1218 96.8179 41.5021 96.0495C40.8828 95.2815 39.9591 94.7561 38.745 94.4647L38.6867 94.7078ZM42.1761 99.032V107.493H42.4261V99.032H42.1761ZM42.3011 107.368H3.00653V107.618H42.3011V107.368ZM3.13153 107.493V99.032H2.88153V107.493H3.13153ZM3.13153 99.032C3.13153 97.858 3.42471 96.92 4.00015 96.2064C4.57589 95.4925 5.44485 94.9901 6.62097 94.7078L6.56263 94.4647C5.34857 94.7561 4.42489 95.2815 3.80554 96.0495C3.18589 96.8179 2.88153 97.8159 2.88153 99.032H3.13153ZM6.61395 94.7093L13.7845 93.4186L13.7402 93.1726L6.56966 94.4633L6.61395 94.7093ZM13.8874 93.2956V48.1211H13.6374V93.2956H13.8874ZM13.7845 47.9981L6.61395 46.7074L6.56966 46.9535L13.7402 48.2441L13.7845 47.9981ZM6.62097 46.7089C5.44485 46.4266 4.57589 45.9242 4.00015 45.2103C3.42471 44.4967 3.13153 43.5587 3.13153 42.3847H2.88153C2.88153 43.6009 3.18589 44.5989 3.80554 45.3672C4.42489 46.1352 5.34857 46.6606 6.56263 46.952L6.62097 46.7089ZM3.13153 42.3847V33.9234H2.88153V42.3847H3.13153ZM3.00653 34.0484H24.2314V33.7984H3.00653V34.0484ZM24.2314 34.0484C26.0417 34.0484 27.2398 34.3838 27.8717 35.0157L28.0484 34.8389C27.3418 34.1323 26.0541 33.7984 24.2314 33.7984V34.0484ZM27.8717 35.0157C28.5137 35.6577 28.9858 36.7742 29.2711 38.3909L29.5172 38.3475C29.2289 36.7135 28.7449 35.5354 28.0484 34.8389L27.8717 35.0157ZM29.2702 38.3852L30.4175 47.2767L30.6654 47.2447L29.5181 38.3532L29.2702 38.3852ZM30.6509 47.321C33.2253 42.649 36.273 39.0797 39.7916 36.6071L39.6479 36.4026C36.0916 38.9016 33.0204 42.5028 30.432 47.2003L30.6509 47.321ZM39.7921 36.6067C43.4049 34.0398 47.3474 32.7577 51.6229 32.7577V32.5077C47.2936 32.5077 43.3008 33.8071 39.6473 36.4029L39.7921 36.6067ZM116.236 35.501L116.282 35.3847L116.281 35.3844L116.236 35.501ZM134.88 54.8615L134.762 54.9038L134.762 54.9045L134.88 54.8615ZM134.88 86.2685L134.997 86.3121L134.997 86.3108L134.88 86.2685ZM127.709 98.315L127.8 98.4007L127.8 98.4006L127.709 98.315ZM116.236 105.916L116.192 105.799L116.191 105.799L116.236 105.916ZM86.2633 105.916L86.2186 106.033L86.2633 105.916ZM74.7905 98.315L74.8814 98.2292L74.8801 98.2278L74.7905 98.315ZM67.3331 86.2685L67.4509 86.2267L67.4507 86.2261L67.3331 86.2685ZM67.3331 54.8615L67.2158 54.8181L67.2157 54.8183L67.3331 54.8615ZM74.7905 42.9583L74.7007 42.8713L74.6996 42.8724L74.7905 42.9583ZM86.2633 35.501L86.2181 35.3844L86.2173 35.3847L86.2633 35.501ZM114.802 88.7064L114.905 88.778L114.905 88.7774L114.802 88.7064ZM114.802 52.5669L114.699 52.6373L114.699 52.6378L114.802 52.5669ZM87.554 88.7064L87.6554 88.6333L87.6551 88.6329L87.554 88.7064ZM101.321 32.9012C106.565 32.9012 111.521 33.8068 116.191 35.6175L116.281 35.3844C111.582 33.562 106.595 32.6512 101.321 32.6512V32.9012ZM116.19 35.6172C120.765 37.428 124.574 39.9045 127.619 43.0454L127.799 42.8713C124.726 39.7021 120.886 37.207 116.282 35.3847L116.19 35.6172ZM127.619 43.0454C130.665 46.1858 133.046 50.1375 134.762 54.9038L134.997 54.8191C133.271 50.0246 130.872 46.0409 127.799 42.8713L127.619 43.0454ZM134.762 54.9045C136.477 59.5736 137.336 64.7693 137.336 70.4932H137.586C137.586 64.7443 136.724 59.5188 134.997 54.8183L134.762 54.9045ZM137.336 70.4932C137.336 76.2171 136.478 81.461 134.762 86.2261L134.997 86.3108C136.724 81.5152 137.586 76.2423 137.586 70.4932H137.336ZM134.763 86.2248C132.951 91.0883 130.568 95.0887 127.618 98.2294L127.8 98.4006C130.777 95.2312 133.176 91.2006 134.997 86.3121L134.763 86.2248ZM127.618 98.2292C124.477 101.561 120.668 104.085 116.192 105.799L116.281 106.033C120.791 104.305 124.632 101.761 127.8 98.4007L127.618 98.2292ZM116.191 105.799C111.81 107.514 106.854 108.372 101.321 108.372V108.622C106.88 108.622 111.867 107.76 116.282 106.032L116.191 105.799ZM101.321 108.372C95.7892 108.372 90.7853 107.514 86.308 105.799L86.2186 106.033C90.7284 107.76 95.7633 108.622 101.321 108.622V108.372ZM86.308 105.799C81.8312 104.085 78.023 101.561 74.8814 98.2292L74.6995 98.4007C77.868 101.761 81.7084 104.305 86.2186 106.033L86.308 105.799ZM74.8801 98.2278C71.5466 94.7991 69.0703 90.7991 67.4509 86.2267L67.2152 86.3102C68.8465 90.9161 71.3418 94.9471 74.7008 98.4021L74.8801 98.2278ZM67.4507 86.2261C65.7352 81.461 64.8767 76.2171 64.8767 70.4932H64.6267C64.6267 76.2423 65.4891 81.5152 67.2155 86.3108L67.4507 86.2261ZM64.8767 70.4932C64.8767 64.7693 65.7353 59.5736 67.4504 54.9045L67.2157 54.8183C65.489 59.5188 64.6267 64.7443 64.6267 70.4932H64.8767ZM67.4503 54.9048C69.0696 50.5233 71.5461 46.5699 74.8813 43.0442L74.6996 42.8724C71.3422 46.4217 68.8472 50.4037 67.2158 54.8181L67.4503 54.9048ZM74.8802 43.0454C77.9258 39.9045 81.7346 37.428 86.3093 35.6172L86.2173 35.3847C81.6137 37.207 77.7739 39.7021 74.7007 42.8713L74.8802 43.0454ZM86.3085 35.6175C90.978 33.8069 95.9819 32.9012 101.321 32.9012V32.6512C95.953 32.6512 90.9182 33.5619 86.2181 35.3844L86.3085 35.6175ZM101.321 94.9981C107.471 94.9981 112.008 92.9302 114.905 88.778L114.7 88.6349C111.86 92.7049 107.41 94.7481 101.321 94.7481V94.9981ZM114.905 88.7774C117.889 84.4463 119.373 78.3946 119.373 70.6367H119.123C119.123 78.3671 117.643 84.3619 114.699 88.6355L114.905 88.7774ZM119.373 70.6367C119.373 62.8787 117.889 56.827 114.905 52.496L114.699 52.6378C117.643 56.9114 119.123 62.9062 119.123 70.6367H119.373ZM114.905 52.4965C112.009 48.2484 107.472 46.1318 101.321 46.1318V46.3818C107.409 46.3818 111.859 48.4719 114.699 52.6373L114.905 52.4965ZM101.321 46.1318C95.1706 46.1318 90.5402 48.2483 87.4529 52.4934L87.6551 52.6404C90.6867 48.472 95.2346 46.3818 101.321 46.3818V46.1318ZM87.4529 52.4934C84.3717 56.73 82.8399 62.8313 82.8399 70.7801H83.0899C83.0899 62.858 84.6175 56.8172 87.6551 52.6404L87.4529 52.4934ZM82.8399 70.7801C82.8399 78.5384 84.372 84.5437 87.4529 88.78L87.6551 88.6329C84.6171 84.4557 83.0899 78.5101 83.0899 70.7801H82.8399ZM87.4526 88.7795C90.4454 92.9307 95.0771 94.9981 101.321 94.9981V94.7481C95.137 94.7481 90.5904 92.7044 87.6554 88.6333L87.4526 88.7795ZM195.842 106.346L195.911 106.242L195.908 106.24L195.842 106.346ZM194.264 103.908L194.142 103.934L194.143 103.938L194.264 103.908ZM192.83 97.1677L192.952 97.1417L192.901 96.8988L192.736 97.085L192.83 97.1677ZM182.648 105.342L182.708 105.452L182.709 105.451L182.648 105.342ZM158.125 106.059L158.182 105.948L158.182 105.948L158.125 106.059ZM149.52 98.7452L149.62 98.6697L149.618 98.6683L149.52 98.7452ZM143.927 86.9855L143.806 87.0186L143.807 87.0192L143.927 86.9855ZM144.07 55.7219L144.19 55.7585L144.19 55.7583L144.07 55.7219ZM150.524 43.532L150.622 43.6098L150.622 43.6097L150.524 43.532ZM160.419 35.501L160.477 35.6117L160.477 35.6116L160.419 35.501ZM184.082 34.4971L184.134 34.3833L184.133 34.3832L184.082 34.4971ZM191.826 39.6599L191.738 39.7483L191.951 39.9617V39.6599H191.826ZM191.826 15.1366H191.951V15.0313L191.847 15.0134L191.826 15.1366ZM187.667 14.4195L187.643 14.5422L187.646 14.5427L187.667 14.4195ZM186.377 14.1327L186.337 14.2517L186.346 14.254L186.377 14.1327ZM185.516 13.9893L185.496 14.1126L185.506 14.1143H185.516V13.9893ZM184.656 13.8459L184.626 13.9677L184.635 13.9692L184.656 13.8459ZM181.07 0.938911V0.813911H180.945V0.938911H181.07ZM209.609 0.938911H209.734V0.813911H209.609V0.938911ZM209.609 93.1522H209.484V93.2594L209.59 93.2757L209.609 93.1522ZM213.338 93.7258L213.366 93.6037L213.357 93.6023L213.338 93.7258ZM215.202 94.1561L215.174 94.2781L215.182 94.2794L215.202 94.1561ZM216.063 94.2995L216.092 94.1776L216.083 94.1762L216.063 94.2995ZM219.648 107.206V107.331H219.773V107.206H219.648ZM191.97 52.7103H192.095V52.6664L192.067 52.6322L191.97 52.7103ZM185.373 47.5475L185.421 47.4324L185.42 47.4317L185.373 47.5475ZM170.458 47.5475L170.51 47.6613L170.51 47.6611L170.458 47.5475ZM164.865 52.1366L164.766 52.0602L164.763 52.064L164.865 52.1366ZM161.423 59.8808L161.544 59.9141L161.544 59.9137L161.423 59.8808ZM161.28 81.9661L161.401 81.9377L161.401 81.9368L161.28 81.9661ZM164.291 89.1367L164.395 89.0673L164.394 89.065L164.291 89.1367ZM168.88 93.2956L168.934 93.1826L168.931 93.1814L168.88 93.2956ZM184.656 92.2917L184.591 92.1849L184.59 92.1853L184.656 92.2917ZM191.97 85.6948L192.068 85.7725L192.095 85.7384V85.6948H191.97ZM198.71 107.081C197.682 107.081 196.751 106.802 195.911 106.242L195.772 106.45C196.654 107.038 197.634 107.331 198.71 107.331V107.081ZM195.908 106.24C195.178 105.784 194.667 105.004 194.385 103.878L194.143 103.938C194.435 105.107 194.975 105.952 195.775 106.452L195.908 106.24ZM194.386 103.882L192.952 97.1417L192.708 97.1937L194.142 103.934L194.386 103.882ZM192.736 97.085C189.878 100.325 186.495 103.041 182.587 105.233L182.709 105.451C186.641 103.246 190.046 100.512 192.924 97.2504L192.736 97.085ZM182.588 105.233C178.785 107.324 174.265 108.372 169.024 108.372V108.622C174.299 108.622 178.862 107.567 182.708 105.452L182.588 105.233ZM169.024 108.372C164.929 108.372 161.317 107.563 158.182 105.948L158.067 106.17C161.243 107.806 164.896 108.622 169.024 108.622V108.372ZM158.182 105.948C154.853 104.236 151.999 101.811 149.62 98.6697L149.42 98.8207C151.821 101.99 154.704 104.44 158.067 106.17L158.182 105.948ZM149.618 98.6683C147.241 95.6247 145.383 91.7207 144.047 86.9518L143.807 87.0192C145.148 91.8111 147.019 95.7468 149.421 98.8222L149.618 98.6683ZM144.047 86.9524C142.712 82.0887 142.044 76.746 142.044 70.9235H141.794C141.794 76.765 142.464 82.1303 143.806 87.0186L144.047 86.9524ZM142.044 70.9235C142.044 65.4849 142.76 60.4302 144.19 55.7585L143.951 55.6853C142.513 60.3832 141.794 65.4628 141.794 70.9235H142.044ZM144.19 55.7583C145.524 51.376 147.667 47.3266 150.622 43.6098L150.426 43.4542C147.453 47.1947 145.294 51.272 143.951 55.6855L144.19 55.7583ZM150.622 43.6097C153.191 40.3739 156.476 37.7077 160.477 35.6117L160.361 35.3902C156.332 37.5009 153.019 40.1887 150.426 43.4542L150.622 43.6097ZM160.477 35.6116C164.281 33.6144 168.611 32.6143 173.47 32.6143V32.3643C168.576 32.3643 164.205 33.372 160.361 35.3903L160.477 35.6116ZM173.47 32.6143C177.567 32.6143 181.087 33.2815 184.031 34.611L184.133 34.3832C181.15 33.0357 177.594 32.3643 173.47 32.3643V32.6143ZM184.03 34.6109C187.175 36.0401 189.743 37.7532 191.738 39.7483L191.915 39.5715C189.894 37.5511 187.299 35.8223 184.134 34.3833L184.03 34.6109ZM191.951 39.6599V15.1366H191.701V39.6599H191.951ZM191.847 15.0134L187.688 14.2964L187.646 14.5427L191.805 15.2598L191.847 15.0134ZM187.692 14.297C187.215 14.2017 186.787 14.1065 186.407 14.0115L186.346 14.254C186.731 14.3502 187.163 14.4462 187.643 14.5421L187.692 14.297ZM186.416 14.0141C186.117 13.9145 185.817 13.8643 185.516 13.8643V14.1143C185.789 14.1143 186.062 14.1597 186.337 14.2513L186.416 14.0141ZM185.537 13.866L184.676 13.7226L184.635 13.9692L185.496 14.1126L185.537 13.866ZM184.685 13.7243C183.509 13.4421 182.64 12.9397 182.064 12.2258C181.489 11.5122 181.195 10.5742 181.195 9.40016H180.945C180.945 10.6163 181.25 11.6143 181.869 12.3827C182.489 13.1507 183.412 13.6761 184.626 13.9674L184.685 13.7243ZM181.195 9.40016V0.938911H180.945V9.40016H181.195ZM181.07 1.06391H209.609V0.813911H181.07V1.06391ZM209.484 0.938911V93.1522H209.734V0.938911H209.484ZM209.59 93.2757L213.319 93.8494L213.357 93.6023L209.628 93.0286L209.59 93.2757ZM213.31 93.8476L215.174 94.2779L215.23 94.0343L213.366 93.604L213.31 93.8476ZM215.182 94.2794L216.042 94.4228L216.083 94.1762L215.223 94.0328L215.182 94.2794ZM216.033 94.421C217.21 94.7033 218.079 95.2057 218.654 95.9196C219.23 96.6332 219.523 97.5712 219.523 98.7452H219.773C219.773 97.529 219.469 96.531 218.849 95.7627C218.23 94.9947 217.306 94.4693 216.092 94.1779L216.033 94.421ZM219.523 98.7452V107.206H219.773V98.7452H219.523ZM219.648 107.081H198.71V107.331H219.648V107.081ZM192.067 52.6322C190.144 50.228 187.929 48.4932 185.421 47.4324L185.324 47.6626C187.788 48.7052 189.971 50.4122 191.872 52.7884L192.067 52.6322ZM185.42 47.4317C182.825 46.3744 180.227 45.845 177.628 45.845V46.095C180.192 46.095 182.758 46.6172 185.326 47.6632L185.42 47.4317ZM177.628 45.845C175.124 45.845 172.716 46.3748 170.406 47.4339L170.51 47.6611C172.788 46.6168 175.161 46.095 177.628 46.095V45.845ZM170.406 47.4337C168.282 48.3994 166.402 49.9432 164.766 52.0602L164.964 52.2131C166.579 50.1234 168.427 48.6077 170.51 47.6613L170.406 47.4337ZM164.763 52.064C163.318 54.087 162.166 56.683 161.302 59.8479L161.544 59.9137C162.401 56.7686 163.543 54.2018 164.967 52.2093L164.763 52.064ZM161.303 59.8476C160.533 62.6355 160.151 66.3289 160.151 70.9235H160.401C160.401 66.3397 160.783 62.6714 161.544 59.9141L161.303 59.8476ZM160.151 70.9235C160.151 75.5173 160.486 79.2092 161.158 81.9955L161.401 81.9368C160.735 79.1778 160.401 75.508 160.401 70.9235H160.151ZM161.158 81.9945C161.83 84.8744 162.839 87.2802 164.189 89.2084L164.394 89.065C163.066 87.1688 162.068 84.7943 161.401 81.9377L161.158 81.9945ZM164.187 89.206C165.535 91.228 167.082 92.633 168.83 93.4098L168.931 93.1814C167.237 92.4285 165.724 91.0609 164.395 89.0673L164.187 89.206ZM168.827 93.4086C170.663 94.2783 172.785 94.7113 175.19 94.7113V94.4613C172.815 94.4613 170.731 94.0338 168.934 93.1826L168.827 93.4086ZM175.19 94.7113C179.031 94.7113 182.21 93.9432 184.721 92.3982L184.59 92.1853C182.129 93.6996 178.999 94.4613 175.19 94.4613V94.7113ZM184.72 92.3986C187.412 90.7646 189.861 88.5552 192.068 85.7725L191.872 85.6171C189.681 88.3796 187.254 90.5682 184.591 92.1849L184.72 92.3986ZM192.095 85.6948V52.7103H191.845V85.6948H192.095ZM282.497 35.0707L282.62 35.0919L282.633 35.0143L282.569 34.9687L282.497 35.0707ZM280.202 48.408L280.079 48.3867L280.078 48.3941L280.202 48.408ZM279.342 50.1289L279.277 50.0216L279.272 50.0249L279.342 50.1289ZM274.466 50.2723L274.494 50.1505L274.493 50.1503L274.466 50.2723ZM259.981 52.7103L260.057 52.8098L260.058 52.809L259.981 52.7103ZM253.384 61.7452L253.271 61.6913L253.259 61.7169V61.7452H253.384ZM253.384 93.2956H253.259V93.4001L253.362 93.4186L253.384 93.2956ZM260.555 94.5863L260.584 94.4645L260.577 94.4633L260.555 94.5863ZM264.14 107.493V107.618H264.265V107.493H264.14ZM224.845 107.493H224.72V107.618H224.845V107.493ZM228.431 94.5863L228.409 94.4631L228.402 94.4647L228.431 94.5863ZM235.601 93.2956L235.623 93.4186L235.726 93.4001V93.2956H235.601ZM235.601 48.1211H235.726V48.0166L235.623 47.9981L235.601 48.1211ZM228.431 46.8304L228.401 46.9522L228.409 46.9535L228.431 46.8304ZM224.845 33.9234V33.7984H224.72V33.9234H224.845ZM249.799 34.9273L249.887 34.8389L249.799 34.9273ZM251.233 38.3692L251.357 38.3532L251.356 38.3475L251.233 38.3692ZM252.38 47.2607L252.256 47.2767L252.305 47.6559L252.49 47.321L252.38 47.2607ZM261.559 36.5048L261.631 36.6071L261.631 36.6067L261.559 36.5048ZM273.462 32.7577C277.173 32.7577 280.157 33.5666 282.424 35.1727L282.569 34.9687C280.247 33.3243 277.208 32.5077 273.462 32.5077V32.7577ZM282.373 35.0495L280.079 48.3868L280.325 48.4291L282.62 35.0919L282.373 35.0495ZM280.078 48.3941C279.984 49.2377 279.707 49.7641 279.277 50.0217L279.406 50.2361C279.933 49.9201 280.229 49.2991 280.326 48.4218L280.078 48.3941ZM279.272 50.0249C278.721 50.3921 278.077 50.5775 277.334 50.5775V50.8275C278.121 50.8275 278.815 50.6305 279.411 50.2329L279.272 50.0249ZM277.334 50.5775C276.679 50.5775 275.734 50.4367 274.494 50.1505L274.438 50.3941C275.683 50.6815 276.65 50.8275 277.334 50.8275V50.5775ZM274.493 50.1503C272.764 49.766 271.081 49.5737 269.446 49.5737V49.8237C271.062 49.8237 272.726 50.0137 274.439 50.3943L274.493 50.1503ZM269.446 49.5737C265.694 49.5737 262.511 50.5844 259.904 52.6116L260.058 52.809C262.614 50.8206 265.741 49.8237 269.446 49.8237V49.5737ZM259.905 52.6108C257.493 54.4442 255.283 57.4756 253.271 61.6913L253.497 61.799C255.5 57.6013 257.689 54.6094 260.057 52.8098L259.905 52.6108ZM253.259 61.7452V93.2956H253.509V61.7452H253.259ZM253.362 93.4186L260.533 94.7093L260.577 94.4633L253.406 93.1726L253.362 93.4186ZM260.526 94.7078C261.702 94.9901 262.571 95.4925 263.146 96.2064C263.722 96.92 264.015 97.858 264.015 99.032H264.265C264.265 97.8159 263.961 96.8179 263.341 96.0495C262.722 95.2815 261.798 94.7561 260.584 94.4647L260.526 94.7078ZM264.015 99.032V107.493H264.265V99.032H264.015ZM264.14 107.368H224.845V107.618H264.14V107.368ZM224.97 107.493V99.032H224.72V107.493H224.97ZM224.97 99.032C224.97 97.858 225.264 96.92 225.839 96.2064C226.415 95.4925 227.284 94.9901 228.46 94.7078L228.402 94.4647C227.187 94.7561 226.264 95.2815 225.644 96.0495C225.025 96.8179 224.72 97.8159 224.72 99.032H224.97ZM228.453 94.7093L235.623 93.4186L235.579 93.1726L228.409 94.4633L228.453 94.7093ZM235.726 93.2956V48.1211H235.476V93.2956H235.726ZM235.623 47.9981L228.453 46.7074L228.409 46.9535L235.579 48.2441L235.623 47.9981ZM228.46 46.7089C227.284 46.4266 226.415 45.9242 225.839 45.2103C225.264 44.4967 224.97 43.5587 224.97 42.3847H224.72C224.72 43.6009 225.025 44.5989 225.644 45.3672C226.264 46.1352 227.187 46.6606 228.402 46.952L228.46 46.7089ZM224.97 42.3847V33.9234H224.72V42.3847H224.97ZM224.845 34.0484H246.07V33.7984H224.845V34.0484ZM246.07 34.0484C247.881 34.0484 249.079 34.3838 249.711 35.0157L249.887 34.8389C249.181 34.1323 247.893 33.7984 246.07 33.7984V34.0484ZM249.711 35.0157C250.353 35.6577 250.825 36.7742 251.11 38.3909L251.356 38.3475C251.068 36.7135 250.584 35.5354 249.887 34.8389L249.711 35.0157ZM251.109 38.3852L252.256 47.2767L252.504 47.2447L251.357 38.3532L251.109 38.3852ZM252.49 47.321C255.064 42.649 258.112 39.0797 261.631 36.6071L261.487 36.4026C257.93 38.9016 254.859 42.5028 252.271 47.2003L252.49 47.321ZM261.631 36.6067C265.244 34.0398 269.186 32.7577 273.462 32.7577V32.5077C269.133 32.5077 265.14 33.8071 261.486 36.4029L261.631 36.6067ZM317.281 16.7141L317.166 16.664L317.166 16.6649L317.281 16.7141ZM314.843 20.2994L314.754 20.211L314.843 20.2994ZM311.257 22.7374L311.212 22.6207L311.211 22.6213L311.257 22.7374ZM302.366 22.7374L302.318 22.8528L302.319 22.8534L302.366 22.7374ZM298.924 20.2994L299.012 20.211L298.924 20.2994ZM296.486 16.7141L296.601 16.6649L296.486 16.7141ZM296.486 7.96605L296.602 8.01248L296.603 8.01093L296.486 7.96605ZM298.924 4.38077L298.836 4.29239V4.29239L298.924 4.38077ZM302.366 2.0862L302.411 2.20287L302.411 2.2027L302.366 2.0862ZM311.257 2.0862L311.304 1.97014L311.303 1.9697L311.257 2.0862ZM314.843 4.38077L314.931 4.29239V4.29239L314.843 4.38077ZM317.281 7.96605L317.164 8.01094L317.165 8.01365L317.281 7.96605ZM322.874 94.5863L322.903 94.4644L322.894 94.463L322.874 94.5863ZM326.459 107.493V107.618H326.584V107.493H326.459ZM287.021 107.493H286.896V107.618H287.021V107.493ZM290.606 94.5863L290.585 94.4627L290.577 94.4647L290.606 94.5863ZM291.467 94.4429L291.487 94.5662L291.491 94.5655L291.467 94.4429ZM293.618 94.0126L293.597 93.8893L293.593 93.8901L293.618 94.0126ZM297.92 93.2956L297.941 93.4189L298.045 93.4015V93.2956H297.92ZM297.92 48.1211H298.045V48.0152L297.941 47.9978L297.92 48.1211ZM293.618 47.4041L293.593 47.5267L293.597 47.5274L293.618 47.4041ZM292.327 47.1172L292.287 47.2362L292.297 47.2385L292.327 47.1172ZM291.467 46.9738L291.446 47.0971L291.456 47.0988H291.467V46.9738ZM290.606 46.8304L290.577 46.9523L290.586 46.9537L290.606 46.8304ZM287.021 33.9234V33.7984H286.896V33.9234H287.021ZM315.56 33.9234H315.685V33.7984H315.56V33.9234ZM315.56 93.2956H315.435V93.4015L315.539 93.4189L315.56 93.2956ZM319.862 94.0126L319.886 93.89L319.882 93.8894L319.862 94.0126ZM321.009 94.2995L320.97 94.4184L320.979 94.4207L321.009 94.2995ZM322.013 94.4429L322.034 94.3196L322.023 94.3179H322.013V94.4429ZM318.159 12.4118C318.159 13.7293 317.83 15.1463 317.166 16.664L317.395 16.7642C318.07 15.2225 318.409 13.7712 318.409 12.4118H318.159ZM317.166 16.6649C316.598 17.9885 315.795 19.1703 314.754 20.211L314.931 20.3878C315.994 19.3251 316.815 18.1168 317.395 16.7634L317.166 16.6649ZM314.754 20.211C313.617 21.3486 312.436 22.1502 311.212 22.6207L311.302 22.8541C312.564 22.3685 313.774 21.5448 314.931 20.3878L314.754 20.211ZM311.211 22.6213C309.791 23.1891 308.325 23.4728 306.811 23.4728V23.7228C308.357 23.7228 309.855 23.4329 311.304 22.8534L311.211 22.6213ZM306.811 23.4728C305.298 23.4728 303.832 23.1891 302.412 22.6213L302.319 22.8534C303.768 23.4329 305.266 23.7228 306.811 23.7228V23.4728ZM302.414 22.622C301.285 22.1518 300.151 21.3501 299.012 20.211L298.836 20.3878C299.991 21.5433 301.151 22.3669 302.318 22.8528L302.414 22.622ZM299.012 20.211C297.972 19.1703 297.168 17.9885 296.601 16.6649L296.371 16.7634C296.951 18.1168 297.773 19.3251 298.836 20.3878L299.012 20.211ZM296.601 16.6649C296.034 15.3427 295.75 13.9254 295.75 12.4118H295.5C295.5 13.9576 295.79 15.4085 296.371 16.7634L296.601 16.6649ZM295.75 12.4118C295.75 10.8981 296.034 9.43197 296.602 8.01248L296.37 7.91963C295.79 9.36836 295.5 10.866 295.5 12.4118H295.75ZM296.603 8.01093C297.073 6.78751 297.875 5.60673 299.012 4.46916L298.836 4.29239C297.678 5.4494 296.855 6.6588 296.369 7.92118L296.603 8.01093ZM299.012 4.46916C300.053 3.4284 301.186 2.67393 302.411 2.20287L302.321 1.96953C301.06 2.45455 299.898 3.22979 298.836 4.29239L299.012 4.46916ZM302.411 2.2027C304.124 1.53659 305.59 1.20732 306.811 1.20732V0.957321C305.548 0.957321 304.049 1.2973 302.32 1.9697L302.411 2.2027ZM306.811 1.20732C308.033 1.20732 309.499 1.53659 311.212 2.2027L311.303 1.9697C309.574 1.2973 308.076 0.957321 306.811 0.957321V1.20732ZM311.211 2.20226C312.631 2.77051 313.812 3.52665 314.754 4.46916L314.931 4.29239C313.961 3.32276 312.751 2.54918 311.304 1.97014L311.211 2.20226ZM314.754 4.46916C315.892 5.60673 316.693 6.78751 317.164 8.01093L317.397 7.92118C316.912 6.6588 316.088 5.4494 314.931 4.29239L314.754 4.46916ZM317.165 8.01365C317.83 9.62836 318.159 11.0939 318.159 12.4118H318.409C318.409 11.0527 318.07 9.55439 317.396 7.91846L317.165 8.01365ZM322.844 94.7078C324.02 94.9901 324.889 95.4925 325.465 96.2064C326.041 96.92 326.334 97.858 326.334 99.032H326.584C326.584 97.8159 326.279 96.8179 325.66 96.0495C325.04 95.2815 324.117 94.7561 322.903 94.4647L322.844 94.7078ZM326.334 99.032V107.493H326.584V99.032H326.334ZM326.459 107.368H287.021V107.618H326.459V107.368ZM287.146 107.493V99.032H286.896V107.493H287.146ZM287.146 99.032C287.146 97.858 287.439 96.92 288.014 96.2064C288.59 95.4925 289.459 94.9901 290.635 94.7078L290.577 94.4647C289.363 94.7561 288.439 95.2815 287.82 96.0495C287.2 96.8179 286.896 97.8159 286.896 99.032H287.146ZM290.627 94.7096L291.487 94.5662L291.446 94.3196L290.586 94.463L290.627 94.7096ZM291.491 94.5655L293.642 94.1352L293.593 93.8901L291.442 94.3203L291.491 94.5655ZM293.638 94.1359L297.941 93.4189L297.899 93.1723L293.597 93.8894L293.638 94.1359ZM298.045 93.2956V48.1211H297.795V93.2956H298.045ZM297.941 47.9978L293.638 47.2808L293.597 47.5274L297.899 48.2444L297.941 47.9978ZM293.642 47.2815C293.166 47.1862 292.737 47.091 292.357 46.996L292.297 47.2385C292.681 47.3347 293.114 47.4307 293.593 47.5266L293.642 47.2815ZM292.367 46.9987C292.068 46.899 291.767 46.8488 291.467 46.8488V47.0988C291.739 47.0988 292.013 47.1442 292.287 47.2358L292.367 46.9987ZM291.487 46.8505L290.627 46.7071L290.586 46.9537L291.446 47.0971L291.487 46.8505ZM290.635 46.7089C289.459 46.4266 288.59 45.9242 288.014 45.2103C287.439 44.4967 287.146 43.5587 287.146 42.3847H286.896C286.896 43.6009 287.2 44.5989 287.82 45.3672C288.439 46.1352 289.363 46.6606 290.577 46.952L290.635 46.7089ZM287.146 42.3847V33.9234H286.896V42.3847H287.146ZM287.021 34.0484H315.56V33.7984H287.021V34.0484ZM315.435 33.9234V93.2956H315.685V33.9234H315.435ZM315.539 93.4189L319.841 94.1359L319.882 93.8894L315.58 93.1723L315.539 93.4189ZM319.837 94.1352C320.313 94.2303 320.69 94.3248 320.97 94.4181L321.049 94.1809C320.755 94.083 320.367 93.9862 319.886 93.8901L319.837 94.1352ZM320.979 94.4207C321.368 94.518 321.713 94.5679 322.013 94.5679V94.3179C321.739 94.3179 321.415 94.2722 321.04 94.1782L320.979 94.4207ZM321.993 94.5662L322.853 94.7096L322.894 94.463L322.034 94.3196L321.993 94.5662Z" fill="#231F1F" fill-opacity="0.87"/>
<path d="M386.1 88.2H352.4V121.9H386.1V88.2Z" fill="#E8A6A2"/>
</svg>
