<svg width="38" height="37" viewBox="0 0 38 37" fill="none" xmlns="http://www.w3.org/2000/svg">
<g filter="url(#filter0_d_1118_3)">
<path d="M33 27.9962C33 27.9968 32.9993 27.9971 32.9989 27.9967L25.8914 21.0083C25.2703 20.3977 25.6727 19.2681 26.5026 19.0037C30.1899 17.8294 33 14.3152 33 10.2152C33 5.31796 28.8491 1.11276 24.0123 1.01327L6.0007 1.0007C5.44814 1.00031 5 1.44814 5 2.0007V3.91777C5 4.47006 5.44772 4.91777 6 4.91777H23.884C26.8095 4.98853 28.9862 7.52228 29.0222 10.2152C28.9862 12.9081 26.8095 15.4441 23.884 15.5126H17.1145C16.2195 15.5126 15.7752 16.5981 16.4133 17.2256L27.0731 27.7086C27.2601 27.8925 27.5119 27.9956 27.7742 27.9956H32.9993C32.9997 27.9956 33 27.9959 33 27.9962V27.9962ZM21.7321 27.9984C21.7321 27.998 21.732 27.9976 21.7317 27.9973L16.1944 22.5529C15.6283 21.9962 14.6714 22.3973 14.6714 23.1913V23.1913C14.6714 23.6858 14.2706 24.0866 13.7761 24.0866H9.97564C9.42335 24.0866 8.97564 23.6389 8.97564 23.0866V13.1719C8.97564 12.6196 9.42335 12.1719 9.97564 12.1719H23.6344C24.7273 12.1719 25.6222 11.2919 25.6222 10.2174C25.6222 9.1429 24.7296 8.26294 23.6344 8.26294H6C5.44771 8.26294 5 8.71065 5 9.26294V27C5 27.5523 5.44772 28 6 28H21.7306C21.7314 28 21.7321 27.9993 21.7321 27.9984V27.9984Z" fill="black"/>
<path d="M24.0174 0.763318L24.0174 0.763269L24.0125 0.763265L6.00087 0.750698C5.31018 0.750216 4.75 1.31 4.75 2.0007V3.91777C4.75 4.60813 5.30964 5.16777 6 5.16777H23.881C26.6563 5.23658 28.736 7.6454 28.7722 10.2152C28.736 12.7852 26.6561 15.196 23.8811 15.2626H17.1145C15.9958 15.2626 15.4404 16.6195 16.238 17.4038L26.8978 27.8868C27.1316 28.1167 27.4463 28.2456 27.7742 28.2456H32.9677C33.1067 28.2626 33.25 28.1588 33.25 27.9962C33.25 27.917 33.2132 27.8463 33.1558 27.8004L26.0667 20.8301C25.8385 20.6057 25.7862 20.2765 25.8908 19.9531C25.9961 19.6275 26.2504 19.3465 26.5785 19.2419C30.3629 18.0366 33.25 14.4307 33.25 10.2152C33.25 5.18181 28.9902 0.865607 24.0174 0.763318ZM21.9069 27.8191L16.3697 22.3747C15.6455 21.6625 14.4214 22.1756 14.4214 23.1913C14.4214 23.5477 14.1325 23.8366 13.7761 23.8366H9.97564C9.56142 23.8366 9.22564 23.5008 9.22564 23.0866V13.1719C9.22564 12.7577 9.56142 12.4219 9.97564 12.4219H23.6344C24.8614 12.4219 25.8722 11.4339 25.8722 10.2174C25.8722 9.00105 24.8638 8.01294 23.6344 8.01294H6C5.30964 8.01294 4.75 8.57258 4.75 9.26294V27C4.75 27.6904 5.30964 28.25 6 28.25H21.7306C21.8694 28.25 21.9821 28.1374 21.9821 27.9984C21.9821 27.931 21.955 27.8664 21.9069 27.8191Z" stroke="black" stroke-width="0.5"/>
</g>
<defs>
<filter id="filter0_d_1118_3" x="0.5" y="0.500732" width="37" height="35.9993" filterUnits="userSpaceOnUse" color-interpolation-filters="sRGB">
<feFlood flood-opacity="0" result="BackgroundImageFix"/>
<feColorMatrix in="SourceAlpha" type="matrix" values="0 0 0 0 0 0 0 0 0 0 0 0 0 0 0 0 0 0 127 0" result="hardAlpha"/>
<feOffset dy="4"/>
<feGaussianBlur stdDeviation="2"/>
<feComposite in2="hardAlpha" operator="out"/>
<feColorMatrix type="matrix" values="0 0 0 0 0 0 0 0 0 0 0 0 0 0 0 0 0 0 0.25 0"/>
<feBlend mode="normal" in2="BackgroundImageFix" result="effect1_dropShadow_1118_3"/>
<feBlend mode="normal" in="SourceGraphic" in2="effect1_dropShadow_1118_3" result="shape"/>
</filter>
</defs>
</svg>
